#!OML:ASF H:\Terrain\Patient Classification 1\Terrain2\Thursday\justin.ASF
:FULLY-SPECIFIED
:DEGREES
3537
root -1.42205 20.5713 -9.53357 -184.116 6.0897 -172.637
lowerback 7.3019 0.817164 5.5022
upperback 2.72705 1.94851 3.94674
thorax -1.24073 1.15233 0.825843
lowerneck -11.1348 -4.51952 -8.70028
upperneck 36.8805 -1.65192 3.83517
head 14.8314 -0.00741258 3.25642
rclavicle -2.45251e-014 -6.12257e-014
rhumerus -34.9445 -3.76186 -81.3006
rradius 40.1743
rwrist -14.003
rhand -19.9133 11.6282
rfingers 7.12502
rthumb 6.4235 -18.2544
lclavicle -2.45251e-014 -6.12257e-014
lhumerus -33.5107 4.23188 85.741
lradius 30.3699
lwrist 4.46649
lhand -20.2009 16.1487
lfingers 7.12502
lthumb 6.14588 46.0396
rfemur 8.96246 -2.06932 32.8086
rtibia 14.3119
rfoot -12.4817 1.0702
rtoes 13.8764
lfemur -38.9693 5.4107 -6.51842
ltibia 94.1266
lfoot -5.89238 -9.62761
ltoes -3.73578
3538
root -1.42191 20.5412 -9.61458 -184.099 6.32463 -172.314
lowerback 7.41926 0.905349 5.92813
upperback 2.75916 2.11849 3.97013
thorax -1.25434 1.24446 0.597578
lowerneck -11.391 -4.51419 -8.81433
upperneck 36.9512 -1.63277 3.93104
head 14.9272 -0.00739775 3.32437
rclavicle -1.5704e-014 -1.86858e-014
rhumerus -34.6146 -3.46803 -81.4351
rradius 40.3718
rwrist -14.5486
rhand -20.358 11.8986
rfingers 7.12502
rthumb 5.99419 -17.9966
lclavicle -1.5704e-014 -1.86858e-014
lhumerus -33.256 5.23715 85.0665
lradius 30.9426
lwrist 1.58725
lhand -12.9237 24.4791
lfingers 7.12502
lthumb 13.1668 54.0434
rfemur 8.93156 -1.59489 33.2564
rtibia 15.0209
rfoot -13.0012 0.695766
rtoes 13.8948
lfemur -39.4183 5.27987 -6.13611
ltibia 92.0484
lfoot -5.50512 -10.1039
ltoes -5.58505
3539
root -1.42077 20.5126 -9.70207 -184.255 6.45258 -172.284
lowerback 7.60328 0.977559 6.11763
upperback 2.81384 2.23797 3.84909
thorax -1.28365 1.30472 0.353628
lowerneck -11.4597 -4.54966 -8.75825
upperneck 36.9481 -1.72417 3.9816
head 14.9476 -0.0342397 3.32131
rclavicle 3.35449e-014 4.77083e-014
rhumerus -34.3307 -3.3921 -81.5817
rradius 40.44
rwrist -14.7805
rhand -20.4511 12.3595
rfingers 7.12502
rthumb 5.90432 -17.5383
lclavicle 3.35449e-014 4.77083e-014
lhumerus -32.9706 5.60771 84.7361
lradius 30.7186
lwrist 1.03217
lhand -14.8356 21.7006
lfingers 7.12502
lthumb 11.3233 51.3749
rfemur 9.21531 -1.217 33.3675
rtibia 15.4686
rfoot -13.505 0.327504
rtoes 13.6634
lfemur -39.4873 4.92319 -6.09427
ltibia 89.778
lfoot -4.74101 -10.3195
ltoes -4.79693
3540
root -1.4223 20.4926 -9.79072 -184.435 6.51668 -172.394
lowerback 7.75034 0.97894 6.10308
upperback 2.88216 2.24237 3.73543
thorax -1.28992 1.3068 0.240917
lowerneck -11.4648 -4.47843 -8.47148
upperneck 36.8875 -1.6228 3.74252
head 14.9008 0.0140354 3.18097
rclavicle 4.34841e-015 8.34896e-015
rhumerus -34.0779 -3.1683 -81.6893
rradius 40.5917
rwrist -14.6368
rhand -20.4467 12.5644
rfingers 7.12502
rthumb 5.90858 -17.3332
lclavicle 4.34841e-015 8.34896e-015
lhumerus -32.8816 4.28985 85.4497
lradius 30.7536
lwrist 6.24944
lhand -18.8805 20.4638
lfingers 7.12502
lthumb 7.42049 50.3137
rfemur 9.57108 -1.10361 33.2506
rtibia 15.8931
rfoot -14.19 0.121201
rtoes 12.3032
lfemur -39.4636 4.34014 -6.25553
ltibia 87.3592
lfoot -3.94502 -10.2247
ltoes -4.8767
3541
root -1.42649 20.4746 -9.88043 -184.454 6.64418 -172.117
lowerback 7.78925 0.971777 6.43551
upperback 2.90478 2.27557 3.80061
thorax -1.27688 1.3312 0.120727
lowerneck -11.6065 -4.41362 -8.24778
upperneck 37.0146 -1.44034 3.44965
head 14.9741 0.0887268 3.05385
rclavicle 4.19187e-014 7.15625e-014
rhumerus -33.8871 -2.94036 -81.6305
rradius 40.903
rwrist -14.8248
rhand -20.392 12.5185
rfingers 7.12502
rthumb 5.9614 -17.3777
lclavicle 4.19187e-014 7.15625e-014
lhumerus -32.8493 4.30178 85.4348
lradius 30.9056
lwrist 7.0241
lhand -20.8865 20.3367
lfingers 7.12502
lthumb 5.48392 50.2457
rfemur 9.77753 -0.949379 33.5452
rtibia 16.3489
rfoot -14.8258 -0.126868
rtoes 11.5683
lfemur -39.597 3.92153 -5.9872
ltibia 84.8446
lfoot -2.99844 -10.2227
ltoes -7.46262
3542
root -1.43211 20.4388 -9.96929 -184.363 6.77015 -171.762
lowerback 7.69108 0.969307 6.82309
upperback 2.95136 2.31195 3.92634
thorax -1.16303 1.36317 0.0373969
lowerneck -11.9603 -4.33755 -8.0953
upperneck 37.228 -1.21711 3.19931
head 15.14 0.172874 2.96857
rclavicle 1.61513e-014 1.07344e-014
rhumerus -33.511 -2.65653 -81.4886
rradius 41.0988
rwrist -15.1349
rhand -20.1862 12.5441
rfingers 7.12502
rthumb 6.16001 -17.3463
lclavicle 1.61513e-014 1.07344e-014
lhumerus -32.6441 5.15493 85.0771
lradius 30.8585
lwrist 5.49566
lhand -19.0124 21.7734
lfingers 7.12502
lthumb 7.29317 51.6277
rfemur 9.89279 -0.908793 33.8847
rtibia 16.7201
rfoot -15.1932 -0.217241
rtoes 11.5705
lfemur -39.8499 3.78151 -5.62376
ltibia 82.259
lfoot -1.43306 -10.3945
ltoes -8.26902
3543
root -1.43577 20.407 -10.0564 -184.362 6.89709 -171.685
lowerback 7.69231 0.97484 6.95308
upperback 3.0266 2.33272 3.93369
thorax -1.07985 1.3814 -0.026841
lowerneck -12.1715 -4.2646 -8.10938
upperneck 37.2493 -1.08119 3.1443
head 15.1901 0.213155 2.96999
rclavicle -3.05631e-015 -4.45278e-014
rhumerus -32.9178 -2.44264 -81.4292
rradius 40.9525
rwrist -15.2616
rhand -20.2011 12.6276
rfingers 7.12502
rthumb 6.14564 -17.2633
lclavicle -3.05631e-015 -4.45278e-014
lhumerus -32.3962 5.35743 85.0488
lradius 30.9026
lwrist 5.89438
lhand -17.3326 23.4094
lfingers 7.12502
lthumb 8.91439 53.2011
rfemur 9.97945 -0.81691 33.9274
rtibia 17.1808
rfoot -15.5288 -0.0982543
rtoes 12.2642
lfemur -39.8063 3.60324 -5.55527
ltibia 79.4501
lfoot 0.0749459 -10.3434
ltoes -7.44816
